<svg width="16" height="16" viewBox="0 0 16 16" fill="none" xmlns="http://www.w3.org/2000/svg">
<path d="M4.57143 7.99998C4.57143 7.59833 4.2303 7.27271 3.80952 7.27271H0.761904C0.34113 7.27271 0 7.59833 0 7.99998C0 8.40163 0.34113 8.72725 0.761904 8.72725H3.80952C4.2303 8.72725 4.57143 8.40163 4.57143 7.99998Z" fill="#B8B6C5"/>
<path d="M15.2381 7.27271H13.7143C13.2935 7.27271 12.9524 7.59833 12.9524 7.99998C12.9524 8.40163 13.2935 8.72725 13.7143 8.72725H15.2381C15.6589 8.72725 16 8.40163 16 7.99998C16 7.59833 15.6589 7.27271 15.2381 7.27271Z" fill="#B8B6C5"/>
<path d="M8.3808 4.36363C8.80158 4.36363 9.14271 4.03801 9.14271 3.63636V0.727272C9.14271 0.325624 8.80158 0 8.3808 0C7.96003 0 7.6189 0.325624 7.6189 0.727272V3.63636C7.6189 4.03801 7.96003 4.36363 8.3808 4.36363Z" fill="#B8B6C5"/>
<path d="M8.3808 11.6362C7.96003 11.6362 7.6189 11.9619 7.6189 12.3635V15.2726C7.6189 15.6742 7.96003 15.9999 8.3808 15.9999C8.80158 15.9999 9.14271 15.6742 9.14271 15.2726V12.3635C9.14271 11.9619 8.80158 11.6362 8.3808 11.6362Z" fill="#B8B6C5"/>
<path d="M3.53209 2.34313C3.23464 2.0591 2.75221 2.05915 2.45461 2.34313C2.15706 2.62715 2.15706 3.08761 2.45461 3.37164L4.60963 5.42875C4.7584 5.57076 4.9534 5.64179 5.14835 5.64179C5.34329 5.64179 5.53834 5.57076 5.68706 5.4288C5.98461 5.14477 5.98461 4.68431 5.68706 4.40029L3.53209 2.34313Z" fill="#B8B6C5"/>
<path d="M12.1522 10.5714C11.8547 10.2874 11.3723 10.2874 11.0747 10.5714C10.7772 10.8554 10.7772 11.3159 11.0747 11.5999L13.2298 13.6569C13.3786 13.7989 13.5735 13.8699 13.7685 13.8699C13.9635 13.8699 14.1585 13.7989 14.3073 13.6569C14.6048 13.3729 14.6048 12.9124 14.3073 12.6284L12.1522 10.5714Z" fill="#B8B6C5"/>
<path d="M4.60982 10.5714L2.45485 12.6284C2.1573 12.9125 2.1573 13.3729 2.45485 13.6569C2.60363 13.799 2.79862 13.8699 2.99362 13.8699C3.18862 13.8699 3.38361 13.799 3.53234 13.6569L5.68731 11.5999C5.98486 11.3159 5.98486 10.8554 5.68731 10.5714C5.38976 10.2874 4.90732 10.2874 4.60982 10.5714Z" fill="#B8B6C5"/>
</svg>
